<svg xmlns="http://www.w3.org/2000/svg" xmlns:xlink="http://www.w3.org/1999/xlink" version="1.0" id="Ebene_1" x="0px" y="0px" width="100px" height="100px" viewBox="5.0 -10.0 100.0 135.0" style="enable-background:new 0 0 100 100;" xml:space="preserve">
<style type="text/css">

	.st0{fill:#1D1D1B;}

</style>
<circle class="st0" cx="50.7" cy="51" r="5.1"/>
<path class="st0" d="M74,48.1l5.3-3.9l-3.4-8.3l-6.5,0.9c-1.2-1.6-2.7-3.1-4.3-4.4l1-6.5l-8.2-3.5l-4,5.2c-2.1-0.3-4.1-0.3-6.2,0  l-3.9-5.3l-8.3,3.4l0.9,6.5c-1.6,1.2-3.1,2.7-4.4,4.3l-6.5-1l-3.5,8.2l5.2,4c-0.3,2.1-0.3,4.1,0,6.2L22,57.9l3.4,8.2l6.5-0.9  c1.2,1.6,2.7,3.1,4.3,4.4l-1,6.5l8.2,3.5l4-5.2c2.1,0.3,4.2,0.3,6.2,0l3.9,5.3l8.2-3.4l-0.9-6.5c1.6-1.2,3.1-2.7,4.4-4.3l6.5,1  l3.5-8.2l-5.2-4C74.3,52.2,74.3,50.1,74,48.1z M50.7,65.8c-8.2,0-14.8-6.6-14.8-14.8c0-8.2,6.6-14.8,14.8-14.8  c8.2,0,14.8,6.6,14.8,14.8C65.5,59.2,58.8,65.8,50.7,65.8z"/>
<text x="0.0" y="117.5" font-size="5.0" font-weight="bold" font-family="Helvetica Neue, Helvetica, Arial-Unicode, Arial, Sans-serif" fill="#000000">Created by Sebastian Wiercinski</text><text x="0.0" y="122.5" font-size="5.0" font-weight="bold" font-family="Helvetica Neue, Helvetica, Arial-Unicode, Arial, Sans-serif" fill="#000000">from the Noun Project</text></svg>