<svg xmlns="http://www.w3.org/2000/svg" xmlns:xlink="http://www.w3.org/1999/xlink" version="1.1" id="Layer_1" x="0px" y="0px" viewBox="5.0 -18.7833 100.0 253.57455" enable-background="new 0 0 100 187.833" xml:space="preserve">
<path fill="#000000" d="M51.875,47.912c1.524-0.789,2.706-2.428,2.706-4.096c0,0-2.268,1.002-4.579,1.002  c-2.313,0-4.581-1.002-4.581-1.002c0,1.667,1.181,3.306,2.707,4.096l-0.226,3.227h4.198L51.875,47.912z"/>
<g>
	<path fill="none" d="M50.001,39.061c7.467,0,13.614-8.247,14.409-18.842c0.1-0.684,0.153-1.384,0.163-2.095l-2.33,2.677   c1.285-2.848-3.294-10.094-3.294-10.094c-7.716,5.581-19.19,0-19.19,0c-3.462,1.365-1.823,11.103-1.823,11.104   c-0.864-0.603-1.656-0.916-2.303-1.079C36.586,31.082,42.655,39.061,50.001,39.061z"/>
	<path fill="#000000" d="M33.587,20.131c0.012,0.157,0.024,0.312,0.039,0.467C34.674,32.446,41.605,41.6,50.001,41.6   c8.504,0,15.507-9.392,16.413-21.464c0.125-0.866,0.191-1.754,0.191-2.659s-0.064-1.792-0.191-2.659   C65.197,6.429,58.313,0,50.001,0C41.687,0,34.8,6.434,33.587,14.826c-0.125,0.865-0.19,1.75-0.19,2.652   c0,0.367,0.014,0.729,0.034,1.09C33.462,19.095,33.512,19.617,33.587,20.131z M39.76,10.707c0,0,11.473,5.581,19.191,0   c0,0,4.578,7.246,3.293,10.094l2.33-2.677c-0.011,0.71-0.064,1.411-0.162,2.095c-0.797,10.596-6.943,18.842-14.41,18.842   c-7.345,0-13.415-7.98-14.368-18.33c0.646,0.163,1.439,0.477,2.303,1.079C37.936,21.809,36.296,12.072,39.76,10.707z"/>
	<path fill="#000000" d="M63.173,38.842c-0.044,1.987-3.517,7.268-6.963,12.035h24.437C77.391,44.262,70.862,39.546,63.173,38.842z"/>
	<path fill="#000000" d="M36.83,38.843c-7.691,0.702-14.218,5.418-17.476,12.034h23.832C40.042,46.11,36.874,40.829,36.83,38.843z"/>
</g>
<path d="M94.22,51.654H5.781C2.588,51.654,0,54.242,0,57.435L5.781,88.07c0,3.192,2.588,5.78,5.78,5.78h7.101l8.112,89.908  c0,2.25,1.824,4.074,4.075,4.074h38.304c2.251,0,4.075-1.824,4.075-4.074l8.111-89.908h7.101c3.192,0,5.78-2.588,5.78-5.78  L100,57.435C100,54.242,97.412,51.654,94.22,51.654z"/>
</svg>